<svg width="113" height="26" viewBox="0 0 113 26" fill="none" xmlns="http://www.w3.org/2000/svg">
<path d="M10.5375 6.83598C11.1455 6.83598 11.6455 6.96398 12.0375 7.21998C12.4295 7.47598 12.7215 7.87998 12.9135 8.43198C13.1055 8.97598 13.2015 9.68798 13.2015 10.568V20H9.9495V11C9.9495 10.552 9.9055 10.236 9.8175 10.052C9.7375 9.86798 9.5695 9.77598 9.3135 9.77598C9.1135 9.77598 8.9055 9.83598 8.6895 9.95598C8.4815 10.068 8.2495 10.284 7.9935 10.604V20H5.3295V11C5.3295 10.552 5.2855 10.236 5.1975 10.052C5.1175 9.86798 4.9495 9.77598 4.6935 9.77598C4.4935 9.77598 4.2855 9.83598 4.0695 9.95598C3.8615 10.068 3.6295 10.284 3.3735 10.604V20H0.0735016V7.25598H2.8575L3.1095 8.49198C3.5095 7.94798 3.9135 7.53598 4.3215 7.25598C4.7295 6.97598 5.2135 6.83598 5.7735 6.83598C6.2535 6.83598 6.6615 6.95998 6.9975 7.20798C7.3415 7.44798 7.5855 7.82798 7.7295 8.34798C8.1135 7.89998 8.5375 7.53598 9.0015 7.25598C9.4655 6.97598 9.9775 6.83598 10.5375 6.83598Z" fill="white"/>
<path d="M28.3001 3.36798L26.3561 20H22.2641L21.0521 8.10798L19.7201 20H15.5561L13.7561 3.36798H17.4401L18.0041 16.64L19.3841 5.28798H22.7681L24.0521 16.64L24.8801 3.36798H28.3001Z" fill="white"/>
<path d="M37.6868 7.25598V17.408H40.9268V20H30.2828V17.408H33.8948V9.84798H30.4028V7.25598H37.6868ZM35.3948 0.583984C36.0508 0.583984 36.5868 0.787984 37.0028 1.19598C37.4188 1.60398 37.6268 2.11198 37.6268 2.71998C37.6268 3.32798 37.4188 3.83998 37.0028 4.25598C36.5868 4.66398 36.0508 4.86798 35.3948 4.86798C34.7308 4.86798 34.1868 4.66398 33.7628 4.25598C33.3468 3.83998 33.1388 3.32798 33.1388 2.71998C33.1388 2.11198 33.3468 1.60398 33.7628 1.19598C34.1868 0.787984 34.7308 0.583984 35.3948 0.583984Z" fill="white"/>
<path d="M56.3854 7.25598L52.1974 12.896L56.7334 20H52.4134L48.2254 13.016L52.4134 7.25598H56.3854ZM48.0814 1.79598V20H44.2894V2.19198L48.0814 1.79598Z" fill="white"/>
<path d="M66.468 7.25598V17.408H69.708V20H59.064V17.408H62.676V9.84798H59.184V7.25598H66.468ZM64.176 0.583984C64.832 0.583984 65.368 0.787984 65.784 1.19598C66.2 1.60398 66.408 2.11198 66.408 2.71998C66.408 3.32798 66.2 3.83998 65.784 4.25598C65.368 4.66398 64.832 4.86798 64.176 4.86798C63.512 4.86798 62.968 4.66398 62.544 4.25598C62.128 3.83998 61.92 3.32798 61.92 2.71998C61.92 2.11198 62.128 1.60398 62.544 1.19598C62.968 0.787984 63.512 0.583984 64.176 0.583984Z" fill="white"/>
<path d="M76.4666 18.152C76.4666 17.76 76.5586 17.408 76.7426 17.096C76.9266 16.776 77.1746 16.524 77.4866 16.34C77.8066 16.148 78.1666 16.052 78.5666 16.052C78.9746 16.052 79.3386 16.148 79.6586 16.34C79.9786 16.524 80.2306 16.776 80.4146 17.096C80.5986 17.408 80.6906 17.76 80.6906 18.152C80.6906 18.544 80.5986 18.904 80.4146 19.232C80.2306 19.552 79.9786 19.808 79.6586 20C79.3386 20.184 78.9746 20.276 78.5666 20.276C78.1666 20.276 77.8066 20.184 77.4866 20C77.1746 19.808 76.9266 19.552 76.7426 19.232C76.5586 18.904 76.4666 18.544 76.4666 18.152Z" fill="white"/>
<path d="M96.4613 7.36398V17.972C96.4613 19.38 96.1453 20.556 95.5133 21.5C94.8813 22.452 93.9653 23.216 92.7653 23.792C91.5653 24.368 90.1132 24.8 88.4092 25.088L88.0732 23.528C89.3212 23.32 90.4253 23.008 91.3853 22.592C92.3453 22.176 93.0932 21.604 93.6292 20.876C94.1732 20.156 94.4453 19.232 94.4453 18.104V8.95998H89.1893V7.36398H96.4613ZM94.5773 1.44798C95.0253 1.44798 95.3852 1.58398 95.6572 1.85598C95.9292 2.12798 96.0653 2.45998 96.0653 2.85198C96.0653 3.25998 95.9292 3.60398 95.6572 3.88398C95.3852 4.15598 95.0253 4.29198 94.5773 4.29198C94.1453 4.29198 93.7972 4.15598 93.5332 3.88398C93.2692 3.60398 93.1373 3.25998 93.1373 2.85198C93.1373 2.45998 93.2692 2.12798 93.5332 1.85598C93.7972 1.58398 94.1453 1.44798 94.5773 1.44798Z" fill="white"/>
<path d="M106.88 18.608C107.848 18.608 108.612 18.428 109.172 18.068C109.74 17.7 110.024 17.212 110.024 16.604C110.024 16.22 109.952 15.888 109.808 15.608C109.672 15.328 109.388 15.076 108.956 14.852C108.524 14.628 107.86 14.404 106.964 14.18C106.092 13.964 105.332 13.716 104.684 13.436C104.044 13.148 103.544 12.776 103.184 12.32C102.832 11.864 102.656 11.272 102.656 10.544C102.656 9.83198 102.856 9.21998 103.256 8.70798C103.664 8.18798 104.228 7.79198 104.948 7.51998C105.668 7.23998 106.504 7.09998 107.456 7.09998C108.472 7.09998 109.356 7.23598 110.108 7.50798C110.868 7.77198 111.512 8.09998 112.04 8.49198L111.152 9.85998C110.672 9.53198 110.144 9.26398 109.568 9.05598C108.992 8.83998 108.296 8.73198 107.48 8.73198C106.488 8.73198 105.784 8.88798 105.368 9.19998C104.952 9.50398 104.744 9.89998 104.744 10.388C104.744 10.756 104.844 11.064 105.044 11.312C105.252 11.552 105.6 11.772 106.088 11.972C106.576 12.164 107.248 12.376 108.104 12.608C108.928 12.824 109.644 13.084 110.252 13.388C110.868 13.692 111.348 14.092 111.692 14.588C112.036 15.084 112.208 15.724 112.208 16.508C112.208 17.404 111.952 18.132 111.44 18.692C110.928 19.244 110.264 19.648 109.448 19.904C108.64 20.152 107.784 20.276 106.88 20.276C105.736 20.276 104.76 20.112 103.952 19.784C103.152 19.448 102.48 19.044 101.936 18.572L103.088 17.24C103.584 17.648 104.152 17.98 104.792 18.236C105.44 18.484 106.136 18.608 106.88 18.608Z" fill="white"/>
</svg>
